<?xml version="1.0" encoding="utf-8"?>
<!-- Generator: Adobe Illustrator 17.1.0, SVG Export Plug-In . SVG Version: 6.00 Build 0)  -->
<!DOCTYPE svg PUBLIC "-//W3C//DTD SVG 1.1 Tiny//EN" "http://www.w3.org/Graphics/SVG/1.1/DTD/svg11-tiny.dtd">
<svg version="1.1" baseProfile="tiny" id="Layer_1" xmlns="http://www.w3.org/2000/svg" xmlns:xlink="http://www.w3.org/1999/xlink"
	 x="0px" y="0px" viewBox="399.328 0 560 560" xml:space="preserve">
<rect x="398.656" fill="#E0B47F" width="562.681" height="562.695"/>
<path fill="#FFFFFF" d="M680,90.735c-107.946,0-195.462,87.502-195.462,195.492c0,86.322,55.985,159.57,133.668,185.442
	c9.789,1.777,13.35-4.271,13.35-9.438c0-4.637-0.157-16.934-0.269-33.249c-54.365,11.812-65.826-26.193-65.826-26.193
	c-8.893-22.572-21.713-28.567-21.713-28.567c-17.741-12.148,1.359-11.902,1.359-11.902c19.63,1.389,29.949,20.138,29.949,20.138
	c17.42,29.882,45.741,21.22,56.889,16.233c1.755-12.641,6.802-21.22,12.387-26.118c-43.404-4.913-89.033-21.728-89.033-96.611
	c0-21.31,7.631-38.774,20.1-52.423c-2.001-4.958-8.699-24.819,1.934-51.744c0,0,16.389-5.249,53.745,20.055
	c15.59-4.346,32.331-6.518,48.937-6.593c16.606,0.075,33.331,2.247,48.922,6.593c37.341-25.305,53.73-20.055,53.73-20.055
	c10.647,26.925,3.942,46.786,1.926,51.744c12.507,13.649,20.093,31.121,20.093,52.423c0,75.107-45.718,91.623-89.257,96.469
	c7.011,6.041,13.276,17.935,13.276,36.183c0,26.133-0.239,47.204-0.239,53.626c0,5.219,3.539,11.29,13.448,9.378
	c77.594-25.872,133.549-99.098,133.549-185.382C875.462,178.237,787.975,90.735,680,90.735"/>
</svg>
