<?xml version="1.0" encoding="utf-8"?>
<!-- Generator: Adobe Illustrator 17.1.0, SVG Export Plug-In . SVG Version: 6.00 Build 0)  -->
<!DOCTYPE svg PUBLIC "-//W3C//DTD SVG 1.1 Tiny//EN" "http://www.w3.org/Graphics/SVG/1.1/DTD/svg11-tiny.dtd">
<svg version="1.1" baseProfile="tiny" id="Layer_1" xmlns="http://www.w3.org/2000/svg" xmlns:xlink="http://www.w3.org/1999/xlink"
	 x="0px" y="0px" viewBox="200 0 560 560" xml:space="preserve">
<rect x="198.656" y="-2.695" fill="#E0B47F" width="562.695" height="562.695"/>
<path fill="#FFFFFF" d="M342.285,93.363h275.46c26.163,0,47.563,21.399,47.563,47.57v275.46c0,26.163-21.399,47.548-47.563,47.548
	h-275.46c-26.171,0-47.585-21.385-47.585-47.548v-275.46C294.7,114.763,316.114,93.363,342.285,93.363z M564.687,134.519
	c-9.191,0-16.688,7.526-16.688,16.71v39.917c0,9.191,7.497,16.695,16.688,16.695h41.88c9.177,0,16.681-7.504,16.681-16.695V151.23
	c0-9.184-7.511-16.71-16.681-16.71L564.687,134.519L564.687,134.519z M623.405,250.074h-32.599
	c3.091,10.102,4.764,20.75,4.764,31.823c0,61.622-51.587,111.604-115.211,111.604c-63.609,0-115.203-49.982-115.203-111.604
	c0-11.073,1.687-21.721,4.764-31.823h-34.018v156.561c0,8.109,6.615,14.702,14.717,14.702h258.07
	c8.109,0,14.717-6.593,14.717-14.702V250.074z M480.351,205.737c-41.089,0-74.42,32.278-74.42,72.128
	c0,39.812,33.324,72.113,74.42,72.113c41.111,0,74.435-32.301,74.435-72.113C554.786,238.015,521.462,205.737,480.351,205.737z"/>
</svg>
