<?xml version="1.0" encoding="utf-8"?>
<!-- Generator: Adobe Illustrator 17.1.0, SVG Export Plug-In . SVG Version: 6.00 Build 0)  -->
<!DOCTYPE svg PUBLIC "-//W3C//DTD SVG 1.1 Tiny//EN" "http://www.w3.org/Graphics/SVG/1.1/DTD/svg11-tiny.dtd">
<svg version="1.1" baseProfile="tiny" id="Layer_1" xmlns="http://www.w3.org/2000/svg" xmlns:xlink="http://www.w3.org/1999/xlink"
	 x="0px" y="0px" viewBox="200 0 560 560" xml:space="preserve">
<rect x="198.656" y="-1.351" fill="#E0B47F" width="562.695" height="562.703"/>
<path fill="#FFFFFF" d="M667.555,163.662c-13.806,6.123-28.642,10.267-44.203,12.118c15.889-9.527,28.112-24.595,33.839-42.575
	c-14.851,8.818-31.315,15.232-48.854,18.682c-14.052-14.971-34.055-24.311-56.187-24.311c-42.5,0-76.966,34.466-76.966,76.959
	c0,6.041,0.679,11.902,1.986,17.532c-63.952-3.196-120.654-33.831-158.629-80.416c-6.615,11.387-10.409,24.595-10.409,38.707
	c0,26.693,13.582,50.266,34.22,64.057c-12.604-0.388-24.468-3.875-34.847-9.632v0.971c0,37.281,26.537,68.395,61.727,75.466
	c-6.451,1.747-13.268,2.71-20.279,2.71c-4.95,0-9.781-0.5-14.47-1.404c9.789,30.583,38.207,52.819,71.882,53.461
	c-26.32,20.638-59.502,32.943-95.588,32.943c-6.205,0-12.32-0.381-18.346-1.083c34.055,21.818,74.51,34.563,117.988,34.563
	c141.546,0,218.96-117.249,218.96-218.96c0-3.323-0.09-6.645-0.209-9.975C644.177,192.655,657.214,179.095,667.555,163.662z"/>
</svg>
