<?xml version="1.0" encoding="utf-8"?>
<!-- Generator: Adobe Illustrator 17.1.0, SVG Export Plug-In . SVG Version: 6.00 Build 0)  -->
<!DOCTYPE svg PUBLIC "-//W3C//DTD SVG 1.1 Tiny//EN" "http://www.w3.org/Graphics/SVG/1.1/DTD/svg11-tiny.dtd">
<svg version="1.1" baseProfile="tiny" id="Layer_1" xmlns="http://www.w3.org/2000/svg" xmlns:xlink="http://www.w3.org/1999/xlink"
	 x="0px" y="0px" viewBox="0 0 324 288" xml:space="preserve">
<rect fill="#E2B57F" width="105.5" height="288"/>
<rect x="105.5" fill="#418EB2" width="113" height="288"/>
<rect x="215.5" fill="#6E7A7F" width="108.5" height="288"/>
<rect y="10" fill="none" width="105.5" height="22.2"/>
<text transform="matrix(1 0 0 1 0 18.5679)" fill="#FFFFFF" font-family="'HelveticaNeue-Medium'" font-size="12"> </text>
<text transform="matrix(1 0 0 1 3.3359 18.5679)" fill="#FFFFFF" font-family="'HelveticaNeue-Medium'" font-size="12"> </text>
<text transform="matrix(1 0 0 1 6.6719 18.5679)" fill="#FFFFFF" font-family="'HelveticaNeue-Medium'" font-size="12"> </text>
<text transform="matrix(1 0 0 1 10.0078 18.5679)" fill="#FFFFFF" font-family="'HelveticaNeue-Medium'" font-size="12">R</text>
<text transform="matrix(1 0 0 1 18.4556 18.5679)" fill="#FFFFFF" font-family="'HelveticaNeue-Medium'" font-size="12">e</text>
<text transform="matrix(1 0 0 1 25.1274 18.5679)" fill="#FFFFFF" font-family="'HelveticaNeue-Medium'" font-size="12">s</text>
<text transform="matrix(1 0 0 1 31.3555 18.5679)" fill="#FFFFFF" font-family="'HelveticaNeue-Medium'" font-size="12">e</text>
<text transform="matrix(1 0 0 1 38.0273 18.5679)" fill="#FFFFFF" font-family="'HelveticaNeue-Medium'" font-size="12">a</text>
<text transform="matrix(1 0 0 1 44.6992 18.5679)" fill="#FFFFFF" font-family="'HelveticaNeue-Medium'" font-size="12">r</text>
<text transform="matrix(1 0 0 1 48.707 18.5679)" fill="#FFFFFF" font-family="'HelveticaNeue-Medium'" font-size="12">c</text>
<text transform="matrix(1 0 0 1 55.3789 18.5679)" fill="#FFFFFF" font-family="'HelveticaNeue-Medium'" font-size="12">h</text>
<text transform="matrix(1 0 0 1 62.2666 18.5679)" fill="#FFFFFF" font-family="'HelveticaNeue-Medium'" font-size="12">.</text>
<rect x="115" y="10" fill="none" width="102.5" height="22.2"/>
<text transform="matrix(1 0 0 1 115.0001 18.5679)" fill="#FFFFFF" font-family="'HelveticaNeue-Medium'" font-size="12">Design.</text>
<rect x="217" y="10" fill="none" width="105.5" height="22.2"/>
<text transform="matrix(1 0 0 1 217 18.5679)" fill="#FFFFFF" font-family="'HelveticaNeue-Medium'" font-size="12">   Develop.</text>
<rect x="9.5" y="204.5" fill="none" width="84.5" height="93.5"/>
<text transform="matrix(1 0 0 1 9.5 213.0679)" fill="#FFFFFF" font-family="'HelveticaNeue-Medium'" font-size="12">Knowing how </text>
<text transform="matrix(1 0 0 1 9.5 227.4678)" fill="#FFFFFF" font-family="'HelveticaNeue-Medium'" font-size="12">people will use </text>
<text transform="matrix(1 0 0 1 9.5 241.8677)" fill="#FFFFFF" font-family="'HelveticaNeue-Medium'" font-size="12">something is </text>
<text transform="matrix(1 0 0 1 9.5 256.2681)" fill="#FFFFFF" font-family="'HelveticaNeue-Medium'" font-size="12">essential.</text>
<rect x="113" y="204.5" fill="none" width="98.5" height="93.5"/>
<text transform="matrix(1 0 0 1 113 213.0679)" fill="#FFFFFF" font-family="'HelveticaNeue-Medium'" font-size="12">T</text>
<text transform="matrix(1 0 0 1 120.1157 213.0679)" fill="#FFFFFF" font-family="'HelveticaNeue-Medium'" font-size="12">h</text>
<text transform="matrix(1 0 0 1 127.0034 213.0679)" fill="#FFFFFF" font-family="'HelveticaNeue-Medium'" font-size="12">e</text>
<text transform="matrix(1 0 0 1 133.6753 213.0679)" fill="#FFFFFF" font-family="'HelveticaNeue-Medium'" font-size="12">r</text>
<text transform="matrix(1 0 0 1 137.6836 213.0679)" fill="#FFFFFF" font-family="'HelveticaNeue-Medium'" font-size="12">e</text>
<text transform="matrix(1 0 0 1 144.3555 213.0679)" fill="#FFFFFF" font-family="'HelveticaNeue-Medium'" font-size="12"> </text>
<text transform="matrix(1 0 0 1 147.6914 213.0679)" fill="#FFFFFF" font-family="'HelveticaNeue-Medium'" font-size="12">i</text>
<text transform="matrix(1 0 0 1 150.5835 213.0679)" fill="#FFFFFF" font-family="'HelveticaNeue-Medium'" font-size="12">s</text>
<text transform="matrix(1 0 0 1 156.8115 213.0679)" fill="#FFFFFF" font-family="'HelveticaNeue-Medium'" font-size="12"> </text>
<text transform="matrix(1 0 0 1 160.1475 213.0679)" fill="#FFFFFF" font-family="'HelveticaNeue-Medium'" font-size="12">b</text>
<text transform="matrix(1 0 0 1 167.4795 213.0679)" fill="#FFFFFF" font-family="'HelveticaNeue-Medium'" font-size="12">e</text>
<text transform="matrix(1 0 0 1 174.1514 213.0679)" fill="#FFFFFF" font-family="'HelveticaNeue-Medium'" font-size="12">a</text>
<text transform="matrix(1 0 0 1 180.8232 213.0679)" fill="#FFFFFF" font-family="'HelveticaNeue-Medium'" font-size="12">u</text>
<text transform="matrix(1 0 0 1 187.7109 213.0679)" fill="#FFFFFF" font-family="'HelveticaNeue-Medium'" font-size="12">t</text>
<text transform="matrix(1 0 0 1 191.707 213.0679)" fill="#FFFFFF" font-family="'HelveticaNeue-Medium'" font-size="12">y</text>
<text transform="matrix(1 0 0 1 197.9351 213.0679)" fill="#FFFFFF" font-family="'HelveticaNeue-Medium'" font-size="12"> </text>
<text transform="matrix(1 0 0 1 113 227.4678)" fill="#FFFFFF" font-family="'HelveticaNeue-Medium'" font-size="12">w</text>
<text transform="matrix(1 0 0 1 122.3359 227.4678)" fill="#FFFFFF" font-family="'HelveticaNeue-Medium'" font-size="12">h</text>
<text transform="matrix(1 0 0 1 129.2236 227.4678)" fill="#FFFFFF" font-family="'HelveticaNeue-Medium'" font-size="12">e</text>
<text transform="matrix(1 0 0 1 135.8955 227.4678)" fill="#FFFFFF" font-family="'HelveticaNeue-Medium'" font-size="12">n</text>
<text transform="matrix(1 0 0 1 142.7832 227.4678)" fill="#FFFFFF" font-family="'HelveticaNeue-Medium'" font-size="12"> </text>
<text transform="matrix(1 0 0 1 146.1191 227.4678)" fill="#FFFFFF" font-family="'HelveticaNeue-Medium'" font-size="12">s</text>
<text transform="matrix(1 0 0 1 152.3472 227.4678)" fill="#FFFFFF" font-family="'HelveticaNeue-Medium'" font-size="12">o</text>
<text transform="matrix(1 0 0 1 159.4629 227.4678)" fill="#FFFFFF" font-family="'HelveticaNeue-Medium'" font-size="12">m</text>
<text transform="matrix(1 0 0 1 169.9028 227.4678)" fill="#FFFFFF" font-family="'HelveticaNeue-Medium'" font-size="12">e</text>
<text transform="matrix(1 0 0 1 176.5747 227.4678)" fill="#FFFFFF" font-family="'HelveticaNeue-Medium'" font-size="12">t</text>
<text transform="matrix(1 0 0 1 180.5708 227.4678)" fill="#FFFFFF" font-family="'HelveticaNeue-Medium'" font-size="12">h</text>
<text transform="matrix(1 0 0 1 187.4585 227.4678)" fill="#FFFFFF" font-family="'HelveticaNeue-Medium'" font-size="12">i</text>
<text transform="matrix(1 0 0 1 190.3506 227.4678)" fill="#FFFFFF" font-family="'HelveticaNeue-Medium'" font-size="12">n</text>
<text transform="matrix(1 0 0 1 197.2383 227.4678)" fill="#FFFFFF" font-family="'HelveticaNeue-Medium'" font-size="12">g</text>
<text transform="matrix(1 0 0 1 204.354 227.4678)" fill="#FFFFFF" font-family="'HelveticaNeue-Medium'" font-size="12"> </text>
<text transform="matrix(1 0 0 1 113 241.8677)" fill="#FFFFFF" font-family="'HelveticaNeue-Medium'" font-size="12">w</text>
<text transform="matrix(1 0 0 1 122.3359 241.8677)" fill="#FFFFFF" font-family="'HelveticaNeue-Medium'" font-size="12">o</text>
<text transform="matrix(1 0 0 1 129.4517 241.8677)" fill="#FFFFFF" font-family="'HelveticaNeue-Medium'" font-size="12">r</text>
<text transform="matrix(1 0 0 1 133.6758 241.8677)" fill="#FFFFFF" font-family="'HelveticaNeue-Medium'" font-size="12">k</text>
<text transform="matrix(1 0 0 1 140.1196 241.8677)" fill="#FFFFFF" font-family="'HelveticaNeue-Medium'" font-size="12">s</text>
<text transform="matrix(1 0 0 1 146.3477 241.8677)" fill="#FFFFFF" font-family="'HelveticaNeue-Medium'" font-size="12"> </text>
<text transform="matrix(1 0 0 1 149.6836 241.8677)" fill="#FFFFFF" font-family="'HelveticaNeue-Medium'" font-size="12">a</text>
<text transform="matrix(1 0 0 1 156.3555 241.8677)" fill="#FFFFFF" font-family="'HelveticaNeue-Medium'" font-size="12">n</text>
<text transform="matrix(1 0 0 1 163.2432 241.8677)" fill="#FFFFFF" font-family="'HelveticaNeue-Medium'" font-size="12">d</text>
<text transform="matrix(1 0 0 1 170.5752 241.8677)" fill="#FFFFFF" font-family="'HelveticaNeue-Medium'" font-size="12"> </text>
<text transform="matrix(1 0 0 1 173.9111 241.8677)" fill="#FFFFFF" font-family="'HelveticaNeue-Medium'" font-size="12">i</text>
<text transform="matrix(1 0 0 1 176.8032 241.8677)" fill="#FFFFFF" font-family="'HelveticaNeue-Medium'" font-size="12">t</text>
<text transform="matrix(1 0 0 1 180.7993 241.8677)" fill="#FFFFFF" font-family="'HelveticaNeue-Medium'" font-size="12"> </text>
<text transform="matrix(1 0 0 1 113 256.2681)" fill="#FFFFFF" font-family="'HelveticaNeue-Medium'" font-size="12">w</text>
<text transform="matrix(1 0 0 1 122.3359 256.2681)" fill="#FFFFFF" font-family="'HelveticaNeue-Medium'" font-size="12">o</text>
<text transform="matrix(1 0 0 1 129.4517 256.2681)" fill="#FFFFFF" font-family="'HelveticaNeue-Medium'" font-size="12">r</text>
<text transform="matrix(1 0 0 1 133.6758 256.2681)" fill="#FFFFFF" font-family="'HelveticaNeue-Medium'" font-size="12">k</text>
<text transform="matrix(1 0 0 1 140.1196 256.2681)" fill="#FFFFFF" font-family="'HelveticaNeue-Medium'" font-size="12">s</text>
<text transform="matrix(1 0 0 1 146.3477 256.2681)" fill="#FFFFFF" font-family="'HelveticaNeue-Medium'" font-size="12"> </text>
<text transform="matrix(1 0 0 1 149.6836 256.2681)" fill="#FFFFFF" font-family="'HelveticaNeue-Medium'" font-size="12">i</text>
<text transform="matrix(1 0 0 1 152.5757 256.2681)" fill="#FFFFFF" font-family="'HelveticaNeue-Medium'" font-size="12">n</text>
<text transform="matrix(1 0 0 1 159.4634 256.2681)" fill="#FFFFFF" font-family="'HelveticaNeue-Medium'" font-size="12">t</text>
<text transform="matrix(1 0 0 1 163.4595 256.2681)" fill="#FFFFFF" font-family="'HelveticaNeue-Medium'" font-size="12">u</text>
<text transform="matrix(1 0 0 1 170.3472 256.2681)" fill="#FFFFFF" font-family="'HelveticaNeue-Medium'" font-size="12">i</text>
<text transform="matrix(1 0 0 1 173.2393 256.2681)" fill="#FFFFFF" font-family="'HelveticaNeue-Medium'" font-size="12">t</text>
<text transform="matrix(1 0 0 1 177.2354 256.2681)" fill="#FFFFFF" font-family="'HelveticaNeue-Medium'" font-size="12">i</text>
<text transform="matrix(1 0 0 1 180.1274 256.2681)" fill="#FFFFFF" font-family="'HelveticaNeue-Medium'" font-size="12">v</text>
<text transform="matrix(1 0 0 1 186.3555 256.2681)" fill="#FFFFFF" font-family="'HelveticaNeue-Medium'" font-size="12">e</text>
<text transform="matrix(1 0 0 1 193.0273 256.2681)" fill="#FFFFFF" font-family="'HelveticaNeue-Medium'" font-size="12">l</text>
<text transform="matrix(1 0 0 1 195.9194 256.2681)" fill="#FFFFFF" font-family="'HelveticaNeue-Medium'" font-size="12">y</text>
<text transform="matrix(1 0 0 1 201.0435 256.2681)" fill="#FFFFFF" font-family="'HelveticaNeue-Medium'" font-size="12">.</text>
<text transform="matrix(1 0 0 1 113 277.7842)" fill="#FFFFFF" font-family="'HelveticaNeue-Medium'" font-size="6">Jony Ive</text>
<text transform="matrix(1 0 0 1 9.5 277.7842)" fill="#FFFFFF" font-family="'HelveticaNeue-Medium'" font-size="6">Donald Norman</text>
<rect x="225.5" y="190.2" fill="none" width="97.5" height="93.5"/>
<text transform="matrix(1 0 0 1 225.5 198.8179)" fill="#FFFFFF" font-family="'HelveticaNeue-Medium'" font-size="12">A</text>
<text transform="matrix(1 0 0 1 233.5039 198.8179)" fill="#FFFFFF" font-family="'HelveticaNeue-Medium'" font-size="12">l</text>
<text transform="matrix(1 0 0 1 236.396 198.8179)" fill="#FFFFFF" font-family="'HelveticaNeue-Medium'" font-size="12">w</text>
<text transform="matrix(1 0 0 1 245.7319 198.8179)" fill="#FFFFFF" font-family="'HelveticaNeue-Medium'" font-size="12">a</text>
<text transform="matrix(1 0 0 1 252.4038 198.8179)" fill="#FFFFFF" font-family="'HelveticaNeue-Medium'" font-size="12">y</text>
<text transform="matrix(1 0 0 1 258.6318 198.8179)" fill="#FFFFFF" font-family="'HelveticaNeue-Medium'" font-size="12">s</text>
<text transform="matrix(1 0 0 1 264.8599 198.8179)" fill="#FFFFFF" font-family="'HelveticaNeue-Medium'" font-size="12"> </text>
<text transform="matrix(1 0 0 1 268.1958 198.8179)" fill="#FFFFFF" font-family="'HelveticaNeue-Medium'" font-size="12">w</text>
<text transform="matrix(1 0 0 1 277.5317 198.8179)" fill="#FFFFFF" font-family="'HelveticaNeue-Medium'" font-size="12">o</text>
<text transform="matrix(1 0 0 1 284.6475 198.8179)" fill="#FFFFFF" font-family="'HelveticaNeue-Medium'" font-size="12">r</text>
<text transform="matrix(1 0 0 1 288.8711 198.8179)" fill="#FFFFFF" font-family="'HelveticaNeue-Medium'" font-size="12">k</text>
<text transform="matrix(1 0 0 1 295.3149 198.8179)" fill="#FFFFFF" font-family="'HelveticaNeue-Medium'" font-size="12"> </text>
<text transform="matrix(1 0 0 1 225.5 213.2178)" fill="#FFFFFF" font-family="'HelveticaNeue-Medium'" font-size="12">h</text>
<text transform="matrix(1 0 0 1 232.3877 213.2178)" fill="#FFFFFF" font-family="'HelveticaNeue-Medium'" font-size="12">a</text>
<text transform="matrix(1 0 0 1 239.0596 213.2178)" fill="#FFFFFF" font-family="'HelveticaNeue-Medium'" font-size="12">r</text>
<text transform="matrix(1 0 0 1 243.0674 213.2178)" fill="#FFFFFF" font-family="'HelveticaNeue-Medium'" font-size="12">d</text>
<text transform="matrix(1 0 0 1 250.3994 213.2178)" fill="#FFFFFF" font-family="'HelveticaNeue-Medium'" font-size="12"> </text>
<text transform="matrix(1 0 0 1 253.7354 213.2178)" fill="#FFFFFF" font-family="'HelveticaNeue-Medium'" font-size="12">o</text>
<text transform="matrix(1 0 0 1 260.8511 213.2178)" fill="#FFFFFF" font-family="'HelveticaNeue-Medium'" font-size="12">n</text>
<text transform="matrix(1 0 0 1 267.7388 213.2178)" fill="#FFFFFF" font-family="'HelveticaNeue-Medium'" font-size="12"> </text>
<text transform="matrix(1 0 0 1 225.5 227.6177)" fill="#FFFFFF" font-family="'HelveticaNeue-Medium'" font-size="12">s</text>
<text transform="matrix(1 0 0 1 231.728 227.6177)" fill="#FFFFFF" font-family="'HelveticaNeue-Medium'" font-size="12">o</text>
<text transform="matrix(1 0 0 1 238.8438 227.6177)" fill="#FFFFFF" font-family="'HelveticaNeue-Medium'" font-size="12">m</text>
<text transform="matrix(1 0 0 1 249.2837 227.6177)" fill="#FFFFFF" font-family="'HelveticaNeue-Medium'" font-size="12">e</text>
<text transform="matrix(1 0 0 1 255.9556 227.6177)" fill="#FFFFFF" font-family="'HelveticaNeue-Medium'" font-size="12">t</text>
<text transform="matrix(1 0 0 1 259.9517 227.6177)" fill="#FFFFFF" font-family="'HelveticaNeue-Medium'" font-size="12">h</text>
<text transform="matrix(1 0 0 1 266.8394 227.6177)" fill="#FFFFFF" font-family="'HelveticaNeue-Medium'" font-size="12">i</text>
<text transform="matrix(1 0 0 1 269.7314 227.6177)" fill="#FFFFFF" font-family="'HelveticaNeue-Medium'" font-size="12">n</text>
<text transform="matrix(1 0 0 1 276.6191 227.6177)" fill="#FFFFFF" font-family="'HelveticaNeue-Medium'" font-size="12">g</text>
<text transform="matrix(1 0 0 1 283.7349 227.6177)" fill="#FFFFFF" font-family="'HelveticaNeue-Medium'" font-size="12"> </text>
<text transform="matrix(1 0 0 1 225.5 242.0181)" fill="#FFFFFF" font-family="'HelveticaNeue-Medium'" font-size="12">u</text>
<text transform="matrix(1 0 0 1 232.3877 242.0181)" fill="#FFFFFF" font-family="'HelveticaNeue-Medium'" font-size="12">n</text>
<text transform="matrix(1 0 0 1 239.2754 242.0181)" fill="#FFFFFF" font-family="'HelveticaNeue-Medium'" font-size="12">c</text>
<text transform="matrix(1 0 0 1 245.9473 242.0181)" fill="#FFFFFF" font-family="'HelveticaNeue-Medium'" font-size="12">o</text>
<text transform="matrix(1 0 0 1 253.063 242.0181)" fill="#FFFFFF" font-family="'HelveticaNeue-Medium'" font-size="12">m</text>
<text transform="matrix(1 0 0 1 263.5029 242.0181)" fill="#FFFFFF" font-family="'HelveticaNeue-Medium'" font-size="12">f</text>
<text transform="matrix(1 0 0 1 267.2827 242.0181)" fill="#FFFFFF" font-family="'HelveticaNeue-Medium'" font-size="12">o</text>
<text transform="matrix(1 0 0 1 274.3984 242.0181)" fill="#FFFFFF" font-family="'HelveticaNeue-Medium'" font-size="12">r</text>
<text transform="matrix(1 0 0 1 278.6221 242.0181)" fill="#FFFFFF" font-family="'HelveticaNeue-Medium'" font-size="12">t</text>
<text transform="matrix(1 0 0 1 282.6182 242.0181)" fill="#FFFFFF" font-family="'HelveticaNeue-Medium'" font-size="12">a</text>
<text transform="matrix(1 0 0 1 289.29 242.0181)" fill="#FFFFFF" font-family="'HelveticaNeue-Medium'" font-size="12">b</text>
<text transform="matrix(1 0 0 1 296.6221 242.0181)" fill="#FFFFFF" font-family="'HelveticaNeue-Medium'" font-size="12">l</text>
<text transform="matrix(1 0 0 1 299.5142 242.0181)" fill="#FFFFFF" font-family="'HelveticaNeue-Medium'" font-size="12">y</text>
<text transform="matrix(1 0 0 1 305.7422 242.0181)" fill="#FFFFFF" font-family="'HelveticaNeue-Medium'" font-size="12"> </text>
<text transform="matrix(1 0 0 1 225.5 256.418)" fill="#FFFFFF" font-family="'HelveticaNeue-Medium'" font-size="12">e</text>
<text transform="matrix(1 0 0 1 232.1719 256.418)" fill="#FFFFFF" font-family="'HelveticaNeue-Medium'" font-size="12">x</text>
<text transform="matrix(1 0 0 1 238.6157 256.418)" fill="#FFFFFF" font-family="'HelveticaNeue-Medium'" font-size="12">c</text>
<text transform="matrix(1 0 0 1 245.2876 256.418)" fill="#FFFFFF" font-family="'HelveticaNeue-Medium'" font-size="12">i</text>
<text transform="matrix(1 0 0 1 248.1797 256.418)" fill="#FFFFFF" font-family="'HelveticaNeue-Medium'" font-size="12">t</text>
<text transform="matrix(1 0 0 1 252.1758 256.418)" fill="#FFFFFF" font-family="'HelveticaNeue-Medium'" font-size="12">i</text>
<text transform="matrix(1 0 0 1 255.0679 256.418)" fill="#FFFFFF" font-family="'HelveticaNeue-Medium'" font-size="12">n</text>
<text transform="matrix(1 0 0 1 261.9556 256.418)" fill="#FFFFFF" font-family="'HelveticaNeue-Medium'" font-size="12">g</text>
<text transform="matrix(1 0 0 1 269.0713 256.418)" fill="#FFFFFF" font-family="'HelveticaNeue-Medium'" font-size="12">.</text>
<text transform="matrix(1 0 0 1 225.5 277.7842)" fill="#FFFFFF" font-family="'HelveticaNeue-Medium'" font-size="6">Larry Page</text>
</svg>
