<?xml version="1.0" encoding="utf-8"?>
<!-- Generator: Adobe Illustrator 17.1.0, SVG Export Plug-In . SVG Version: 6.00 Build 0)  -->
<!DOCTYPE svg PUBLIC "-//W3C//DTD SVG 1.1 Tiny//EN" "http://www.w3.org/Graphics/SVG/1.1/DTD/svg11-tiny.dtd">
<svg version="1.1" baseProfile="tiny" id="Layer_1" xmlns="http://www.w3.org/2000/svg" xmlns:xlink="http://www.w3.org/1999/xlink"
	 x="0px" y="0px" viewBox="200 0 560 560" xml:space="preserve">
<rect x="198.656" y="-1.344" fill="#E0B47F" width="562.695" height="562.695"/>
<path fill="#FFFFFF" d="M471.04,86.837c3.532,2.18,7.474,5.369,11.872,9.565c4.219,4.375,8.348,9.774,12.395,16.135
	c3.883,6.018,7.31,13.104,10.319,21.325c2.464,8.191,3.689,17.771,3.689,28.709c-0.321,20.048-4.756,36.086-13.283,48.123
	c-4.166,5.831-8.587,11.207-13.261,16.128c-5.189,4.906-10.685,9.931-16.516,15.03c-3.353,3.457-6.429,7.377-9.266,11.76
	c-3.338,4.555-5.01,9.826-5.01,15.844c0,5.869,1.71,10.677,5.137,14.5c2.905,3.651,5.734,6.847,8.482,9.58l19.018,15.575
	c11.812,9.684,22.169,20.309,31.076,31.98c8.385,11.857,12.753,27.343,13.126,46.473c0,27.164-12.006,51.206-35.989,72.195
	c-24.842,21.698-60.749,32.891-107.639,33.622c-39.26-0.366-68.566-8.736-87.935-25.088c-19.518-15.299-29.307-33.578-29.307-54.858
	c0-10.356,3.166-21.937,9.55-34.668c6.153-12.723,17.323-23.916,33.495-33.555c18.137-10.349,37.206-17.285,57.187-20.742
	c19.794-2.897,36.213-4.547,49.295-4.906c-4.047-5.324-7.638-10.998-10.804-17.046c-3.689-5.861-5.518-12.925-5.518-21.153
	c0-4.95,0.694-9.094,2.091-12.38c1.232-3.494,2.382-6.675,3.427-9.625c-6.362,0.724-12.38,1.09-18.002,1.09
	c-29.852-0.366-52.58-9.759-68.23-28.157c-16.389-17.151-24.588-37.102-24.588-59.868c0-27.537,11.596-52.491,34.817-74.921
	c15.926-13.104,32.487-21.661,49.653-25.693c17.009-3.465,32.943-5.189,47.802-5.189h112.082l-34.615,20.212L471.04,86.837
	L471.04,86.837z M492.678,409.465c0-14.231-4.637-26.611-13.903-37.177c-9.826-10.02-25.163-22.325-46.047-36.93
	c-3.584-0.366-7.765-0.538-12.581-0.538c-2.852-0.351-10.177,0-21.952,1.09c-11.588,1.65-23.468,4.286-35.609,7.93
	c-2.852,1.098-6.854,2.748-12.021,4.935c-5.182,2.367-10.446,5.742-15.807,10.117c-5.182,4.555-9.55,10.199-13.104,16.957
	c-4.122,7.116-6.153,15.688-6.153,25.708c0,19.69,8.893,35.915,26.738,48.675c16.972,12.753,40.156,19.316,69.604,19.697
	c26.417-0.373,46.592-6.212,60.487-17.509C485.899,441.273,492.678,426.974,492.678,409.465z M414.54,245.175
	c14.762-0.553,27.052-5.861,36.878-15.911c4.756-7.116,7.803-14.418,9.154-21.915c0.806-7.497,1.232-13.776,1.232-18.906
	c0-22.086-5.652-44.382-16.957-66.834c-5.309-10.767-12.29-19.548-20.937-26.298c-8.848-6.369-19.003-9.759-30.471-10.125
	c-15.195,0.366-27.813,6.489-37.893,18.353c-8.49,12.417-12.559,26.298-12.163,41.649c0,20.265,5.914,41.343,17.778,63.273
	c5.757,10.214,13.141,18.891,22.243,26.006C392.483,241.614,402.862,245.175,414.54,245.175z"/>
<polygon fill="#FFFFFF" points="692.053,127.837 633.246,127.837 633.246,69.014 604.753,69.014 604.753,127.837 545.953,127.837 
	545.953,156.337 604.753,156.337 604.753,215.137 633.246,215.137 633.246,156.337 692.053,156.337 "/>
</svg>
