<?xml version="1.0" encoding="utf-8"?>
<!-- Generator: Adobe Illustrator 17.1.0, SVG Export Plug-In . SVG Version: 6.00 Build 0)  -->
<!DOCTYPE svg PUBLIC "-//W3C//DTD SVG 1.1 Tiny//EN" "http://www.w3.org/Graphics/SVG/1.1/DTD/svg11-tiny.dtd">
<svg version="1.1" baseProfile="tiny" id="Layer_1" xmlns="http://www.w3.org/2000/svg" xmlns:xlink="http://www.w3.org/1999/xlink"
	 x="0px" y="0px" viewBox="0 0 75 75" xml:space="preserve">
<rect x="0" y="-0.5" fill="#E0B47F" width="75" height="76"/>
<path fill="#FFFFFF" d="M34.107,34.324c0,0,4.787-0.357,4.787-5.973c0-5.614-3.917-8.353-8.881-8.353h-9.132h-0.27h-6.927v31.381
	h6.927h0.27h9.134c0,0,9.971,0.312,9.971-9.264C39.986,42.115,40.418,34.324,34.107,34.324z M28.841,25.573h1.173
	c0,0,2.22,0,2.22,3.266c0,3.264-1.306,3.737-2.786,3.737h-8.566v-7.003H28.841z M29.556,45.803h-8.674v-8.387h9.134
	c0,0,3.31-0.044,3.31,4.309C33.325,45.395,30.852,45.775,29.556,45.803z"/>
<path fill="#FFFFFF" d="M53.281,27.981c-12.067,0-12.059,12.056-12.059,12.056s-0.829,11.998,12.059,11.998
	c0,0,10.736,0.613,10.736-8.348h-5.521c0,0,0.181,3.377-5.031,3.377c0,0-5.524,0.369-5.524-5.463h16.264
	C64.204,41.602,65.982,27.981,53.281,27.981z M47.879,37.416c0,0,0.677-4.837,5.525-4.837c4.847,0,4.784,4.837,4.784,4.837H47.879z"
	/>
<rect x="46.528" y="21.844" fill="#FFFFFF" width="12.948" height="3.863"/>
</svg>
