<?xml version="1.0" encoding="utf-8"?>
<!-- Generator: Adobe Illustrator 17.1.0, SVG Export Plug-In . SVG Version: 6.00 Build 0)  -->
<!DOCTYPE svg PUBLIC "-//W3C//DTD SVG 1.1 Tiny//EN" "http://www.w3.org/Graphics/SVG/1.1/DTD/svg11-tiny.dtd">
<svg version="1.1" baseProfile="tiny" id="Layer_1" xmlns="http://www.w3.org/2000/svg" xmlns:xlink="http://www.w3.org/1999/xlink"
	 x="0px" y="0px" viewBox="200 0 560 560" xml:space="preserve">
<rect x="198.656" y="-1.344" fill="#DFB37E" width="562.695" height="562.688"/>
<path fill="#FFFFFF" d="M294.939,215.876h79.393v255.046h-79.393V215.876z M334.654,89.085c25.379,0,45.965,20.608,45.965,45.95
	c0,25.364-20.578,45.972-45.965,45.972c-25.476,0-46.017-20.608-46.017-45.972C288.644,109.7,309.185,89.085,334.654,89.085"/>
<path fill="#FFFFFF" d="M424.097,215.876h76.033v34.854h1.083c10.573-20.07,36.467-41.201,75.055-41.201
	c80.252,0,95.103,52.797,95.103,121.49v139.903h-79.259V346.924c0-29.605-0.582-67.655-41.223-67.655
	c-41.283,0-47.57,32.219-47.57,65.468v126.187h-79.221V215.876z"/>
</svg>
