<?xml version="1.0" encoding="utf-8"?>
<!-- Generator: Adobe Illustrator 17.1.0, SVG Export Plug-In . SVG Version: 6.00 Build 0)  -->
<!DOCTYPE svg PUBLIC "-//W3C//DTD SVG 1.1 Tiny//EN" "http://www.w3.org/Graphics/SVG/1.1/DTD/svg11-tiny.dtd">
<svg version="1.1" baseProfile="tiny" id="Layer_1" xmlns="http://www.w3.org/2000/svg" xmlns:xlink="http://www.w3.org/1999/xlink"
	 x="0px" y="0px" viewBox="200 0 560 560" xml:space="preserve">
<rect x="198.656" y="-1.351" fill="#E0B47F" width="562.695" height="562.695"/>
<path fill="#FFFFFF" d="M480,76.474c-112.388,0-203.526,91.116-203.526,203.526c0,83.335,50.109,154.933,121.834,186.405
	c-0.575-14.231-0.105-31.285,3.532-46.726c3.927-16.546,26.193-110.925,26.193-110.925s-6.518-12.977-6.518-32.181
	c0-30.143,17.509-52.67,39.275-52.67c18.502,0,27.44,13.888,27.44,30.539c0,18.607-11.872,46.443-17.965,72.218
	c-5.107,21.594,10.834,39.193,32.092,39.193c38.573,0,64.542-49.504,64.542-108.199c0-44.591-30.031-77.974-84.672-77.974
	c-61.727,0-100.195,46.025-100.195,97.44c0,17.741,5.234,30.247,13.425,39.932c3.771,4.45,4.293,6.227,2.905,11.334
	c-0.941,3.771-3.188,12.761-4.137,16.33c-1.359,5.182-5.518,7.011-10.177,5.107c-28.441-11.596-41.686-42.739-41.686-77.743
	c0-57.807,48.742-127.142,145.466-127.142c77.683,0,128.852,56.231,128.852,116.599c0,79.834-44.412,139.477-109.835,139.477
	c-21.982,0-42.65-11.887-49.713-25.357c0,0-11.835,46.891-14.314,55.948c-4.323,15.673-12.775,31.375-20.496,43.598
	c18.293,5.391,37.632,8.34,57.673,8.34c112.388,0,203.504-91.108,203.504-203.519C683.511,167.582,592.388,76.474,480,76.474z"/>
</svg>
